<svg xmlns="http://www.w3.org/2000/svg" viewBox="0 0 129 130">
<g id="map-africa">
	<path id="aegypten" class="country" d="M73.9,28.6c2.2-0.3,18.5-0.4,18.4-0.6c-1-0.8-3.4-2.4-2.1-3.3c-2-1.4-3-4.1-4.2-6.1
		c-0.8-1.3-2.1-2.8-2.2-4.3c1,1.1,2.1,4.3,3.5,3s-0.8-4.6-1.3-5.7c-1.8,1.3-3.1-0.1-5,0.1c-0.9,0.1-1.9,1.1-2.8,1.2
		c-2.2,0.2-5.4-2.4-6.5-0.4c0.3,2.4,0.5,4.8,0.6,7.2C72.2,22.9,73.9,25.6,73.9,28.6z"/>
	<path id="aequatorialguinea" class="country" d="M49.5,65.1c-4.5,0.3-3.8-2.2,0-1.9C49.6,63.9,49.6,64.5,49.5,65.1z"/>
	<path id="ethiopia" class="country" d="M113.3,52.3c-1.4,1.7-3.2,4.4-5.1,5.3c-0.5,0.3-3.1,0.9-3.7,1.6c-1.5,1.1-2.2,1-4.6,0.5
		c-1.1,0-0.7,2-3.7,0.5c-0.8-0.8-2.8-1-3.2-1.2s0-0.8-0.5-1.5c-1.4-1.8-3.1-3.3-5.1-4.5c0.6-1.2,1.2-0.3,1.7-1.6
		c0.3-0.8-0.1-1.5,0.1-2.4c0.1-0.3,3.9-5.3,3.5-7.2c0.2-0.6,0.9-0.4,1.6,0c0.2-0.5,0.5-0.8,0.7-1.2c1.1,0.6,2.3,0.8,3.5,0.8
		c2,0,3,1.8,4.2,2.8c0.6,0.5-0.6,1.5-0.1,2.6c0.4,0.9,0.9,0.7,1.6,0.4c-0.3,2,1.3,2.8,3,3.6C109.2,51.9,111.2,52.4,113.3,52.3z"/>
	<path id="algerien" class="country" d="M18.7,15.9c0.3-0.7,2.4-1.3,3.4-1.7c1.2-0.4,3.5-1.9,5.1-1.8c-0.8-1.4,0.2-1.6,1.4-1.6c1.4,0,2,0.2,2.6-1.1
		c-0.5-1.6-0.3-3.9-0.9-4.1c2.1-1.3,4.5-2.1,6.9-2.5c1.7-0.3,3.5-0.4,5.2-0.5C43.5,2.6,46,3,47,2.7c-1,1-0.8,2.4-0.8,3.6
		c0,0.4-1.8,1.3-1.7,1.6c0.1,0.8,0.4,1.5,0.8,2.2c0.5,0.5,1.2,0.9,1.4,1.5c0.4,0.9,0.6,1.9,0.5,2.9c-0.1,1.8,0,3.7,0.3,5.5
		c0,0.9,0,1.7-0.2,2.6c0.2,2,3.6,3.2,4.3,3.6c-3.2,0.1-9.3,5.6-10.7,6.1c-0.9,0.3-2.5,1.4-3.4,1.3c-1.3-0.1-3.5-3.2-5.4-4.5
		c-3.5-2.6-7.6-5.8-11.1-8.4C18.5,18.7,17.9,18.2,18.7,15.9z"/>
	<g id="angola">
		<path id="angola-path-1" class="country" d="M50.4,96.9c6-1.6,13.2,2.1,19.7,0.6c-2.9-2-1.9-4.7-1.9-8.1l3.6,0.1c-0.6-1.1-0.1-2.5,0-3.8
			c-1.4,0.4-2.3-0.1-3.2,0.9c-0.6-2.3-0.9-4.7-0.9-7.2c-0.5,0-1,0-1.5,0.1c-0.2-1.4-1.4-0.4-2.2-0.1c-1,0.4-0.2,2-2.5,1.6
			c-0.5-0.1-1.1-0.4-1.5-0.7c-2.7-2.1-0.2-2.7-3.5-3.3c-1.7-0.3-3.4-0.1-5,0.7c1.2,3.4,3.2,7.5,1.7,11c-0.5,1.3-1.6,2.3-2,4.1
			C50.8,94.2,50.7,95.6,50.4,96.9z"/>
		<path id="angola-path-2" class="country" d="M50.9,75.8c0.5-0.4,1.3-1.4,3.7-0.7c-1.5,0.2-2.4,1.6-3.1,2.5L50.9,75.8z"/>
	</g>
	<path id="benin" class="country" d="M34.9,56c-0.7,0.1-1.4,0.2-2.1,0.2c1.5-1.5-1.3-7.5-1.1-8.6c0.3-0.1,2.1-0.4,2.8-1.8c0.8,0.4,1.8,0.1,2.3-0.7
		c-0.5,1.3-0.1,2.3-0.7,4.5C35.7,52.1,35,53.1,34.9,56z"/>
	<path id="burundi" class="country" d="M80.7,71.7c0.8,0.2,2-0.5,3-0.9c0.3,1.1-0.1,2.3-1,3c-0.7,0.6-1.2,0.6-1.6,1.4C81.2,74.8,81.6,72.1,80.7,71.7
		z"/>
	<path id="burkina_faso" class="country" d="M25.9,50.4c-0.5-1.9-2.5,0.6-4.5-1.8c0.8-3.2,3.2-5.7,6.3-6.8c4.2-1.8,2.3-0.4,4.2,1.9
		c0.8,0.9,1.7,1.6,2.8,2c-1.2,1.8-2.5,1.9-4.4,1.8c-1.6,0-3.5,0.2-4.7,0.2C25.6,48.6,25.9,49.7,25.9,50.4z"/>
	<path id="dr-congo" class="country" d="M62.6,60.8c-0.5,1.3-1,2.6-1.4,4c-0.2,1.5-0.7,2.9-1.4,4.2c-0.7,1.6-1.5,3.1-2.3,4.7c-1.8,2.5-4.6,0.5-6,4
		c0.5,0.4,3.3-0.8,4.9-0.5c3.3,0.6,0.8,1.1,3.5,3.3c0.4,0.4,0.9,0.7,1.5,0.8c2.5,0.5,1.5-1.1,2.5-1.6c0.8-0.4,2-1.3,2.2,0.1
		c0.5-0.1,1-0.1,1.5-0.1c0.2,2.4,0.5,4.8,1,7.2c0.7-1.1,3.5-1.3,3.9,0c4.2,0,7.6,2.7,8.9,3.6c0.6-2.1-0.8-1.9-1.4-2.1
		c-1.5-0.3-0.4-2,0-3.9c0.6-2.6,0.2-2.3,3.4-3.1c-0.2-1.4-1.4-2.1-1.8-3.3c-0.6-1.7-0.3-3.3-0.4-5.1c-0.1-1.2-0.9-1-0.7-1.8
		s0.9-1.4,1.3-1.8c-0.9-1.6,0.7-4.1,3-6c-1.5-0.7-0.7-2.1-1.7-3.1c-1.7-1.6-2.3-0.7-3.8-0.8c-0.6,0-1.1-1.2-1.8-1.4
		c-0.6,0.9-4.7,0.4-6.7,0.9c-1.3,0.3-2.7,1.1-4.4,0.2C63.7,57.6,64,57.4,62.6,60.8z"/>
	<path id="dschibuti" class="country" d="M104,43.9c-3.3,1.8-0.8,5.5,0.8,2.7c-0.3-0.3-0.4-0.6-1-0.4C104,45.4,105.9,44.9,104,43.9z"/>
	<path id="elfenbeinkueste" class="country" d="M16.9,59.3c2,0.4,3.3-1,5.1-1.2s2.2,0.2,3-1.1c-0.3-1.1-0.1-2.2,0.4-3.1c0.5-1,0.7-2.1,0.5-3.2
		c-0.3-1.8-1-0.6-2.7-0.9c-1.2-0.2-1.8-1.9-3.5-0.8c-0.1-1.2-0.1-0.5-0.7-0.5c-0.5,0.3-1,0.5-2.5,0.2c0,1.2,0.1,2.3,0.4,3.5L16,52
		c0,0.2,0.6,1.2-0.5,1.7c0.4,1.5,0.1,1.7-0.2,1.8C17.2,56.1,17.4,57.5,16.9,59.3z"/>
	<path id="eritrea" class="country" d="M95,40.8c0.7,0.4,1.5,0.6,2.3,0.6c1.9,0.4,2,0,3.8,1.4c1.4,1.1,1.4,2.5,3,1.4c-0.8-2.1-4.9-4.8-5.1-4.6
		c-0.4,0.2-2.8-4.3-3.5-4.7c-0.2,1.7-0.9,0.9-1.6,1.8c-1,1.2-1,3.5-1,5.2c1.4-0.1,0.6,0,1.7,0.3L95,40.8z"/>
	<path id="gabun" class="country" d="M49.2,73.6c-2-2-4.8-4.1-3-6.8c0,0,1.1,0.4,1,0c-2.2-1.9,1.3-1.1,2.4-1.6c0.3-0.1-0.2-1.6,0.4-1.9s2.5,0,3.2,0
		c-0.2,0.5-0.1,1.1-0.3,1.6c0.3,0.1,1.4-1.1,1.7-0.2c0.5,1.4-0.2,1.2-0.2,2.5c0,1.1,0.9,3-0.2,3.9c-0.4,0.3-2-0.5-2.9-0.1
		C49.8,71.5,50.5,72.6,49.2,73.6z"/>
	<path id="gambia" class="country" d="M2.1,41.2c1.7,1.4,4,0,5,1.5c0,1.3-4.4-0.1-5.3,0.9C2,42.8,2.1,42,2.1,41.2z"/>
	<path id="ghana" class="country" d="M32.1,56.5c-0.3,0.4-4.6,2.3-5.4,2.3c-2.2-0.2-1.6-0.9-1.8-2.3c-0.3-1.8,0.8-2.7,1-4.2c0.2-1.4-0.4-3.1-0.5-4.5
		c1.7,0,3.3-0.2,4.9-0.2C30,48.2,31.4,55.7,32.1,56.5z"/>
	<path id="sierra-leone" class="country" d="M10.3,54.5c-1.4-0.5-3.8-2.2-3.1-3.9c0.2-0.5,2.7-1.7,3.5-1.5c2.3,0.8,0.3,3.1,2.2,2.7
		C12.2,52.9,11.3,53.8,10.3,54.5z"/>
	<path id="guinea" class="country" d="M4.5,47.1C4.4,47.4,5,47.2,5,47.2c0.4,0,1.4,3,2.2,3.3C8,50,9.4,49,10.2,49c2.3,0.1,1.5,2.5,2,2.7
		c2.6,0.4,0.6,2.3,3.1,1.8c1.1-0.2,1.1-0.9,0.7-1.7l0.9,0.2c-0.2-1.7-0.5-3.3-0.9-4.9c-0.7,0.1-0.2,0.7-0.6,0.1
		c0.2-0.2,0.6-0.3,0.6-0.5c-1.2-0.8-1-2.8-1.8-1.8c-0.5,0.6-3,1.2-3.1-0.1c-1.4-0.2-2.6-0.2-3.9-0.4C7.7,46.6,5.8,45.9,4.5,47.1z"/>
	<path id="guinea-bissau" class="country" d="M1.7,44.5c0.1,1,2.1,0.9,2.1,1.1c0.2,0.6,0.4,1.1,0.6,1.7c1.1-1.7,3.3-0.3,2.7-2.8
		C5.4,44.3,3.6,44.3,1.7,44.5z"/>
	<path id="kamerun" class="country" d="M58,64.2c-3.4-1.5-7.3-0.9-11-0.9c0.7-1.8-0.5-2.7-0.8-3.2c-0.9-1.8-1.7-0.1-1-2.6c0.3-1,1-1.9,1.9-2.4
		c0.4-0.1,2,1.7,3.3-0.5c1-1.4,1.8-3,2.3-4.6c1.4-3.3,1.6-2.8,2.2-4.1l-0.2-1c1.1,0.7,2,3.7,1.9,4.9c-3.4-1.3-0.2,3.4-0.4,5.3
		c-0.1,0.8-1.3,1.6-0.8,3.6C55.9,60.9,58.5,61.7,58,64.2z"/>
	<path id="libyen" class="country" d="M50.5,9.5c0.2,1.8-2.8,3.2-3.2,4.9c-0.3,1.4,0.1,4.5,0.2,6.3c0,0.6-0.7,1.9,0.3,3.1c1.1,1.1,2.4,2,3.9,2.4
		c1.3,0.1,2.8-0.1,4.5,0.8c0.8-0.2,1.3-0.8,2.2-0.4c3.8,1.8,9,4.6,12.8,6.5c0.1-0.7,0.8-1.2,1.5-1.1c2.6-3.9-0.4-8.1-0.5-10.6
		c-0.1-2-0.1-3.3-0.3-5c-0.1-0.7-0.3-4.5-0.7-4.9c-0.7-0.7-4.9-2-6.1-1.5c-2,0.9-0.6,1.2-1.4,2.4c-1.3,2.1-0.1,1.4-2.6,1.2
		c-1.5-0.1-3-0.6-4.3-1.3c-0.6-0.3-0.1-1.1-0.6-1.4C54.4,9.8,52.2,10.6,50.5,9.5z"/>
	<path id="liberia" class="country" d="M16.9,59.2c-2.6-0.6-4.7-3.2-6.7-4.8c1.1-0.7,1.9-1.6,2.6-2.6c1.5,0.6,0.5,1,1.3,1.7s0.9-0.3,1.4,0
		c0,0.5,0.7,1.7-0.3,1.8C17.2,56.2,17.3,57.3,16.9,59.2z"/>
	<path id="madagascar" class="country" d="M108.1,112.6c2.1-4.5,7.2-11.8,6.8-16.8c0.2-1,0.8,0.7,0.6,0.6c0.8-0.2,0.4-6.7-1.1-6.9
		c-0.3,0-1.2,2.5-2.2,2.5c-0.4,0-0.2,1.8-0.1,2c-0.4,0.1-0.7,0.2-1,0.5l0.1-0.6c-0.4,0.9-0.6,0.5-0.5,1.6h-0.5l0.1-0.4
		c-1.2-0.8-0.8,0.9-0.8,1.2l-0.5,0.1c-0.9-0.8-0.5-0.4-1.7,0l-0.1-0.4c-1.1,0.4-2,1.3-2.3,2.5s0.8,2.7,0.5,4.2s-1.9,2.3-2.4,3.6
		C101.7,109.8,103.6,114.7,108.1,112.6z"/>
	<path id="mali" class="country" d="M23.6,22.7c-2.7-0.1-2-0.2-2.6,1.5s0,4.9,0,6.7c0,1.5,1,8.1,0.3,8.6c-1.6,1-7.1-0.8-8.6,0.2
		c-0.4,0.2-0.7-1-1-0.9s-1,0.4-1.6,1.6c-0.3,0.6,0.5,1.3,0.6,2.2c0.3,0.9,0.4,1.9,0.4,2.8c0,0.5,2,0,2.7,0.2c0.2,0,0.4-1.1,1-0.8
		s0.4,1.5,1.3,2.1l-0.6,0.5c0.4,0.5,0.3-0.2,0.7-0.2c-0.1,1.6,0.9,1.7,1.8,1.8c0.2-0.1,3.1-1.4,1.8,0c0.5-0.4,1.1-0.5,1.6-0.2
		c1.3-4.8,5.8-7.4,10.6-8c2.1-0.2,4.1,0.1,5.4-1.4c0.9-1.1,0.6-3.8,0.6-5.5c-1.3,0.5-3.4-2.5-4.9-3.8C30,27.4,26.7,25.1,23.6,22.7z"
		/>
	<path id="marokko" class="country" d="M18.4,17.7c-0.1-2.4,1.6-2.7,3.2-3.2c1.2-0.4,3.7-2.1,5.5-2c-1.4-2.4,2.7-1.2,3.4-1.9c0.9-0.9,0.4-1,0.2-2.5
		c-0.3-2.8,0-2.1-2.5-3c-2.8-1-2.4-0.8-4.6,0.4C22.9,5.9,21.7,7,21,7.6c-1,0.6-1.8,1.4-2.5,2.3c-1,1.3-0.9,2.6-1.6,3.9
		c-1.4,2.4-4,2.3-5.8,3.9C13.2,17.1,14.9,17.1,18.4,17.7z"/>
	<path id="mauretanien" class="country" d="M9.9,28.5c0.1-0.9-0.2-2,0.2-2.8c0.5-1,1.7-0.4,2-1.1s-0.1-3.7,0.6-4.2c1.6-1.2,5.6,2.6,5.7-1.8
		c1.8,1.4,3.4,2.8,5.1,4.1c-2.7-0.1-2-0.2-2.6,1.5c-0.7,2,0,5.7,0.1,7.8s1.2,7,0.2,7.5c-1.2,0.7-5.6-0.2-7-0.3
		c-0.8,0-0.9,0.3-1.5,0.4s-0.8-1-0.8-1c-1.6,0.6-1.6,1.9-1.8,2c-0.5,0.2-0.5-3.9-6.9-3.7C3.8,35.5,4.1,34,4,32.6
		c0-0.5-0.4-2.9-0.3-3.1c0-0.4,0-1,0.9-1.3C5.8,27.8,8.6,28.4,9.9,28.5z"/>
	<path id="niger" class="country" d="M37.9,33.7c0,1.8,0.5,4.9-0.8,5.9c-1.6,1.3-5.3,0.6-6.5,1.3c-0.1,2.2,3.3,5.4,5.2,4.9c1.2-0.3,1.1-1.5,2.1-2.1
		c1.9-1.2,3,0,4.5,0.5c1.5,0.4,3.1,0.4,4.6,0.1c1.6-0.4,6-1.4,7.2-0.6c-0.9-2.1-0.6-2.3,0.4-3.7c1.6-2.3,2.5-4.9,2.7-7.7
		c0-1.9-1.7-3.6-1.2-5.2c-0.6-0.7-2.5-0.8-3.5-0.8C47.3,26.1,43.2,32.4,37.9,33.7z"/>
	<path id="nigeria" class="country" d="M44.7,58.7c-2.7,3.6-6.2-3.4-9.8-2.7c0.1-2.1,0.6-4.1,1.3-6.1c0.5-1.8-0.1-3.6,1.1-5.2c1.7-2.4,3.4-1,5.6-0.3
		c1.6,0.3,3.3,0.2,4.9-0.2c0.7-0.1,1.6-0.1,2.4-0.3c0.3-0.1,2.4-0.4,2.5-0.4c1.5,0.1,1.8,0,2,1.7s-0.2,1.2-1,2.8
		c-1.2,2.3-2.3,7.1-4.6,7.8c-0.3,0.1-1.5-0.8-2.4-0.4S45,57.9,44.7,58.7z"/>
	<path id="congo" class="country" d="M50.9,75.8l-1.7-2.2c1.8-0.8,0.4-1.9,2.1-2.6c1-0.5,2.4,0.5,3,0.1c0.9-0.7,0.2-2.8,0.2-3.7
		c0-0.8,0.5-1.7,0.4-2.1c-0.6-1.6-1.1-0.1-1.9-0.3c-0.6-3.2,3.7-1,5.1-0.7c-1-3.6,2.6-3,4.7-3.4c-0.6,1.3-1.1,2.7-1.5,4.1
		c-0.1,1.5-0.6,2.9-1.3,4.2c-0.6,1.2-1.2,3.1-1.9,4.2C55.7,76.8,52.8,73.3,50.9,75.8z"/>
	<path id="senegal" class="country" d="M3.2,36.9c-1.6,2.8-2.8,4.4,0.3,5c1.2,0.2,3-0.2,3.6,0.9c-0.3,1.4-5.8-0.7-5.4,1.7c3.5-0.3,5.8,0.1,9.3,0.3
		c-0.1-2-0.8-4-2-5.6C7.2,36.6,5.1,37.1,3.2,36.9z"/>
	<path id="somalia" class="country" d="M104.8,46.4c-3,3.5,6,6.3,8.5,5.9c-1.3,1.5-2.5,3.5-4.1,4.7s-2.5,1-4.2,1.9c-3.2,1.6-5.9,8.1-2.5,11
		c5.3-5.9,10.5-9.3,13.7-16.7c0.8-1.9,3.8-7.4,1-7.9c-1-0.2-5.1,1.8-5.9,2C108.3,48,107.2,48.6,104.8,46.4z"/>
	<path id="sued-sudan" class="country" d="M89.3,50.6c-0.3,0.1-0.5,0.2-0.8,0.3c0.2-1-1.8-5.7-2.5-6.1c0.2-0.1-1,0.5-1.2,0.6c1.5,1.2,0.1,3.6-1.3,4
		c-0.8-0.3-1.6-0.5-2.4-0.7c-0.2,0-1,1-1.1,1c-0.2-0.8-1.1-0.9-2.1-0.7c-0.3,2.4-2.7,0-3.2,0c-1,0-2,0.7-2.8,3
		c1.1,0.5,2.2,1.2,3,2.1c1.3,1.3,2.5,3.7,4.1,5.1c0.6,0.6,1.4-0.1,2.3,0c2.2,0.3,1.9,1.8,2.7,1.5c2.1-0.2,4.1-0.7,5.9-1.6
		c1.2-0.5,2.8,0,2.9-0.2c1-1.2-3.4-4.7-5.4-5.8C87.9,52,89.5,52.4,89.3,50.6z"/>
	<path id="sudan" class="country" d="M92.4,28.1c-6.3,0.1-12.4,0.3-19.3,0.5c0.1,1.1-0.2,2.3-0.1,3.4c-2.4,0.2-1.6,1.5-1.6,3.8
		c0,0.7,0.4,2.6,0.1,3.2c-0.4,0.8-0.8-0.1-1.3,0.6c-1.2,1.5-1.9,3.3-2.1,5.2l0.8-0.2c0.2,1.3,0.6,2.5,1.3,3.5
		c0.4,2.6,0.5,3.3,1.8,3.7c0.9-1.7,0.9-2.7,2.8-3c0.4-0.1,3.1,2.5,3.3,0.1c1-0.3,1.8-0.1,2.1,0.7c0.2-0.1,0.7-0.8,1.1-0.9
		c0.8,0.1,1.7,0.3,2.4,0.6c1.4-0.4,2.7-2.8,1.3-4l1.2-0.6c0.6,0.3,2.7,5.2,2.5,6.2c1.4-0.5,0.2-1.3,0.8-1.9c1.3-1.6,2.4-3.4,3.2-5.3
		c0.6-1.7,0-3.7,0.6-5.5c0.2-0.6,0.4-1.1,0.7-1.7c0.2-0.3,1.5-0.8,1.5-0.9c0.4-1.9-0.6-0.5-1.2-2S93.1,29.8,92.4,28.1z"/>
	<path id="swaziland" class="country" d="M83.7,112.5c1,2.1-1.7,2.7-1.9,1.7C81.6,112.8,82.5,111.9,83.7,112.5z"/>
	<path id="togo" class="country" d="M32.1,56.5c2.9-0.2-0.2-7.3-0.4-8.8l-1.5-0.2C30,48.2,31.4,55.7,32.1,56.5z"/>
	<path id="tunesien" class="country" d="M49,2.5c-1.7,0.1-2.1,0-2.8,1.6c-0.3,0.7,0.2,1.8-0.1,2.5c-0.1,0.3-1.7,1.1-1.6,1.5c0.1,0.9,0.5,1.7,1.2,2.3
		c1.4,1.1,1.5,2.3,1.7,4.4c0.2-1.1,2.4-3.3,2.6-3.6c1.2-1.7,0.3-1.6-0.6-2.8c-0.3,0.2-1.2,0.4-1.2-0.4s1.7-1.4,2-2.1
		c-0.3-1.1-0.4-2.2-0.2-3.2c-0.2-0.2-0.5,0.3-0.8,0.5L49,2.5z"/>
	<path id="tschad" class="country" d="M71.3,33.2c-3.3-1.6-12.7-6.7-13.4-6.6c-3.4,0.3-1,3-0.7,4.6c0.6,3.3-1.1,6.7-2.5,8.8
		c-1.2,1.9-1.2,1.7-0.3,3.9c0.7,1.7,2.4,3.8,2.2,6c-2.9-1.2-0.9,2.6-0.6,3.9c0.2,0.5,1.1,0.4,2,0.3s2.9-0.2,4-0.9
		c0.9-0.5,0.8-1.4,1.5-1.7s2-0.3,2.5-0.6c1.7-1.2,1.2-2.8,3.8-3.1c-0.5-0.9-0.8-1.9-1-3L68,45c0.2-1.6,0.7-3.8,1.7-5
		c1.2-1.5,1,0.5,1.8-1.5C71.9,37.2,71.3,34.5,71.3,33.2z"/>
	<path id="westsahara" class="country" d="M9.9,28.5c0.1-0.9-0.2-1.9,0.2-2.8c0.5-1,1.6-0.4,2-1.1c0.6-1-0.1-3.6,0.7-4.3s3.7,0.9,4.6,0.4s1-1.9,1-3
		c-3.7-0.3-6.7-1.5-9.1,1.7c-1.7,2.3-5.3,6.5-5.6,9.4C5.1,27.4,8,28.4,9.9,28.5z"/>
	<path id="zentralafrikanische-republik" class="country" d="M56.8,54.2c-1.9,3.2-2.4,4.7,1.2,8c1.8-2,2.5-0.4,4-1.3c1-0.6,0.9-2.7,2.3-3.1
		c0.3-0.1,2.1,1.4,2.8,1.5c1.5,0.3,2.5-0.3,3.7-0.5c2.7-0.5,4.9,0,7-0.8c-1.1-2-2.5-3.7-4.2-5.2c-0.8-0.6-1.9-0.7-2.6-1.6
		c-0.9-1.1,0.2-4.6-2.6-3.1c-0.4,0.2-1.2,1.9-1.8,2.3c-1,0.7-2,0.3-3,0.9c-0.5,0.3-0.6,1.3-1.4,1.7C60.6,53.9,58.3,53.8,56.8,54.2z"
		/>
	<path id="lesotho" class="country" d="M78.1,119.7c-1.1,0.1-1.1,1.4-2.3,0.3c-0.9-0.9-0.3-1.8,0.6-2.4C78.3,116.2,80,118.5,78.1,119.7z"/>
	<path id="botswana" class="country" d="M73.1,97.8c-1,0.4-1.9,0.9-2.7,1.6c-0.3-1.1-2.6-1.2-4-0.1c-1,0.7-0.2,2.3-0.6,5.5c-0.1,1-1.7,0.5-1.7,0.5
		s0.1,1.9,0.1,2.7c0,1.7,1.7,2.3,1,5.3c2.2,0.8,2.4-1.3,4.4-1.9c1-0.3,1.6,0.6,2.5,0.3c1.9-0.6,5.8-5.1,7.8-5.9
		C77.1,104.2,74.8,101.1,73.1,97.8z"/>
	<path id="kenya" class="country" d="M102.5,69.9c-1.3,1.9-2.6,3.7-4.1,5.4c-1.8-1.2-2.5-2.3-3.9-3.7c-1.6-1.5-3.8-2.6-5.8-3.8c0.7-1.1,1.9-2.7,2-4
		s0.3-3.6-2.7-3.9c1.9-1.7,5-1,6.7-0.5c1.2,0.4,1.9,1.3,3.5,1.2c0.6-0.1,1-0.9,1.3-0.9c1.2-0.1,2.5,0.4,3.7,0.3
		C101,62.5,99.8,67.7,102.5,69.9z"/>
	<path id="mozambique" class="country" d="M81.7,93.4c0.1,2,1.6,1.4,3.1,2.1s1.4,1.3,1.4,3.6c0,1.4-0.3,2.8-0.8,4.2c-1.2,3.1-2,3.1-1.8,7
		c0.1,0.8,0.1,1.6,0.1,2.5c0.2,0.1,0.2,1.1-0.1,1.4c0.4-0.2,1.6,0,1.5-1.2l-0.4,0.2c0.4-2.3,3.7-2,5-3.9c-0.3-0.5-0.2-3.5-0.3-4.7
		s-0.1-5.1,2.2-4.1c1.7-2.3,6.4-2.8,7.8-5.7c0.2-0.8,0.3-1.7,0.2-2.5c0.1-1.4,1-5.6,0.6-6.6c-2,1.1-4.3,1.8-6.6,2.1
		c-0.6,0.1-3.3,0.6-4.2-1.8c-0.2,3.9,0.7,5,1.2,6c1.9,3.1-0.2,2.5-0.1,5.1L90,97.2c0,0-0.8-3.4-0.7-3.2c-0.8-1.4-0.2-0.9-1.7-1.5
		C85.8,91.8,84,92.7,81.7,93.4z"/>
	<path id="namibia" class="country" d="M50.4,97c-0.6,3.3,3.8,6.3,4.7,9.5c0.7,2.6,0.2,5.8,1.5,8.2c0.4,0.7,1,1.3,1.6,1.9c1.8-1.4,3.9,2.8,5.7-1.1
		c0.8-2.9,0.3-7.4,0.2-10.3c3.3,1,1-3.9,1.9-5.5c0.6-1,3.7-2,4.4-0.3c0.7-0.6,1.5-1.1,2.4-1.4c-2.9-1.3-3-0.2-4.6,0
		c-2,0.2-3.9,0.1-5.8-0.2C58.9,97,53.9,95.9,50.4,97z"/>
	<path id="rwanda" class="country" d="M83.1,69.2c-1.2-0.3-2.4,0.6-2.7,1.8c0,0.1,0,0.1,0,0.2C80.5,72.3,84.9,71.3,83.1,69.2z"/>
	<path id="south-africa" class="country" d="M58.3,116.7c0.7,1.5,2.2,3.3,2.5,4.9s-0.4,2.2,0.3,3.7c1.4,3.3,5.2,1.3,7.6,1.1c3.5-0.3,4.7,0.2,7.5-2.3
		c3.1-2.8,7.7-5.8,8.7-10c-0.6-0.3-2.4,0.9-2.9,0.4c-0.4-3,1.5-1.9,1.7-2.1c-0.1-2.8,0.8-6.9-3.1-6.7c-1.8,0.1-3.6,1.9-5,3.2
		c-1.7,1.5-2.1,2.2-4.1,2.8c-0.9-0.8-2.3-0.7-3.1,0.3c-0.4,0.2-1.3,1.9-3.1,1.3c0.4-1.6,0.1-3.2-0.9-4.6c0,1.5,0.1,5.9-0.6,7.1
		C61.9,119.1,59.6,115.1,58.3,116.7z"/>
	<path id="tanzania" class="country" d="M88.8,67.9c-0.7,1.3-4,1.2-5.7,1.2c0.8,0.9,0.7,2.8,0.3,3.7c-0.5,1.4-2,1.2-2.2,2.2
		c-0.4,2.8,2.1,6.6,4.2,7.9c0.9,0.6,2.8,0.6,3.5,1.4c0.9,1,0.4,2.5,1.5,3.2c2.1,1.4,7.9-0.4,9.8-1.6c-0.6-1.1-1.7-2.1-1.8-3.6
		c0-0.6,0.5-1.8,0.4-2.5c-0.6-0.5-1-1.2-1.3-1.9l0.4-1.2l0.4-1.2l-1.2-0.8C95.7,71.5,91.8,69.8,88.8,67.9z"/>
	<path id="uganda" class="country" d="M83.8,60.7c2.9-0.7,6.9-1.7,7.2,2c0.3,1.8-1.7,5.3-3.2,6.1c-1.9,0.3-3.9,0.4-5.8,0.5c-1.5-1.8,1.7-5.1,2.9-6
		C83.9,62.8,83.4,61.7,83.8,60.7L83.8,60.7z"/>
	<path id="zambia" class="country" d="M83.4,81.3c-3,0.7-2.6,0.5-3.4,3c-0.3,1.1-0.6,2.2-0.7,3.4c0.2,0.5,1.6,1.3,2,0.7c0.1,0.7,0.1,1.3,0,2
		c-2.2-1.8-6.4-3.8-8.9-3.6C72,86,72,86.2,71.5,86c-0.2,1.3-0.4,2.6,0.2,3.7c-2.1-0.1-3.6,0-3.6,0c-0.1,1.1-0.2,2.2-0.2,3.3
		c0,1.1-0.2,2.4,0.3,3.3c1.1,1.8,1.7,0.8,3,1.3c0.2,0.1,1.7,0.6,1.8,0.6c0.7,0.2,1.4,0.2,2.1,0.1c3.5-1,4-3.8,6.9-3.2
		c-0.1-0.3-0.4-1.1-0.5-1.4c1.7-0.6,3.4-0.8,5.1-1.4c-0.6-0.9-0.3-2.1,0.6-2.7c0.2-0.1,0.4-0.2,0.6-0.3c-1.1-1.5,0.6-2.9-0.2-4.5
		C86.9,82.8,85.9,84,83.4,81.3z"/>
	<path id="zimbabwe" class="country" d="M73.3,98.2c0.9,2,2.3,3.9,3.9,5.4c2,2,2,1.8,2.6,2.1c1.3,0.5,2.3-0.6,3.9,1.9c1.4-3.2,2.2-5.2,2.5-7.9
		c0.3-3.7-0.3-4-3.8-4.7c-2.6-0.5-2.7,1-5.3,2.4C75,98.4,75.9,98,73.3,98.2z"/>
	<path id="malawi" class="country" d="M88.9,84c0.9,1.6,0.4,4.9,1,6.7s1.7,1.9,1.6,3.9c-0.2,0.8-1.1,0.8-0.8,2.6h-0.5c0-0.1-0.7-2.8-0.7-2.9
		c-0.1-0.9-0.8-1.6-1.7-1.8c-0.9-0.3-1.4-1.3-1-2.3c0.2-0.6,0.7-1,1.4-1.1c-0.8-1.1,0-1.8-0.1-3c-0.1-1-0.3-1.9-0.8-2.7
		C87.6,83.8,88.2,84,88.9,84z"/>
	<g id="dots">
		<circle id="lesotho-dot" class="country" cx="76.7" cy="118.4" r="1.8"/>
		<circle id="swaziland-dot" class="country" cx="83.2" cy="112.9" r="1.8"/>
		<circle id="rwanda-dot" class="country" cx="82.2" cy="71.9" r="1.8"/>
		<circle id="burundi-dot" class="country" cx="81.7" cy="69.4" r="1.8"/>
		<circle id="seychelles-dot" class="country" cx="125.7" cy="75.9" r="1.8"/>
		<circle id="mauritius-dot" class="country" cx="125.7" cy="105.9" r="1.8"/>
		<circle id="reunion-dot" class="country" cx="121.7" cy="106.9" r="1.8"/>
		<circle id="malawi-dot" class="country" cx="89.7" cy="90.2" r="1.8"/>
	</g>
</g>
</svg>
