<svg id="Layer_1" data-name="Layer 1" xmlns="http://www.w3.org/2000/svg" viewBox="0 0 44 14"><defs><style>.cls-1{fill:#cdcbcb}</style></defs><path id="arrow" class="cls-1" d="M15.67 1.64C14.52 2 7 .5 6.61 2.2c-.22 1.07 1.73 1.7 2.88 2.13C20.27 9.65 31.63 13.55 44 13.2c-6.69 1.63-13.23.57-19.7-1.28A79.23 79.23 0 0 1 7.62 5.54c-.72-.35-2.16-1.77-2.88-.43-.29.71.43 1.56.72 2.34L7.19 11c.36.71.5 1.42-.36 1.77s-1.08-.35-1.22-.92C4.6 8.3 2 5.75.57 2.63-.36.71-.29-.07 1.86 0h5.76c.86 0 7.69-.14 8.05 1.42z"/></svg>